<svg width="24" height="24" viewBox="0 0 24 24" fill="none" xmlns="http://www.w3.org/2000/svg">
<path d="M11.9999 16.3L8.29994 19.125C8.11661 19.275 7.91661 19.346 7.69994 19.338C7.48327 19.33 7.29161 19.2673 7.12494 19.15C6.95827 19.0326 6.82927 18.8743 6.73794 18.675C6.64661 18.4756 6.64227 18.259 6.72494 18.025L8.14994 13.4L4.52494 10.825C4.32494 10.6916 4.19994 10.5166 4.14994 10.3C4.09994 10.0833 4.10827 9.88331 4.17494 9.69998C4.24161 9.51665 4.35827 9.35398 4.52494 9.21198C4.69161 9.06998 4.89161 8.99931 5.12494 8.99998H9.59994L11.0499 4.19998C11.1333 3.96665 11.2626 3.78731 11.4379 3.66198C11.6133 3.53665 11.8006 3.47431 11.9999 3.47498C12.1993 3.47565 12.3869 3.53831 12.5629 3.66298C12.7389 3.78765 12.8679 3.96665 12.9499 4.19998L14.3999 8.99998H18.8749C19.1083 8.99998 19.3083 9.07098 19.4749 9.21298C19.6416 9.35498 19.7583 9.51731 19.8249 9.69998C19.8916 9.88265 19.8999 10.0826 19.8499 10.3C19.7999 10.5173 19.6749 10.6923 19.4749 10.825L15.8499 13.4L17.2749 18.025C17.3583 18.2583 17.3543 18.475 17.2629 18.675C17.1716 18.875 17.0423 19.0333 16.8749 19.15C16.7076 19.2666 16.5159 19.3293 16.2999 19.338C16.0839 19.3466 15.8839 19.2756 15.6999 19.125L11.9999 16.3Z" fill="#FFDE42"/>
</svg>
